<?xml version="1.0" standalone="no"?>
<!DOCTYPE svg PUBLIC "-//W3C//DTD SVG 20010904//EN"
 "http://www.w3.org/TR/2001/REC-SVG-20010904/DTD/svg10.dtd">
<svg version="1.0" xmlns="http://www.w3.org/2000/svg"
 width="512.000000pt" height="512.000000pt" viewBox="0 0 512.000000 512.000000"
 preserveAspectRatio="xMidYMid meet">
<metadata>
Created by potrace 1.14, written by Peter Selinger 2001-2017
</metadata>
<g transform="translate(0.000000,512.000000) scale(0.100000,-0.100000)"
fill="#000000" stroke="none">
<path d="M3068 4456 c-163 -67 -386 -235 -734 -552 -196 -178 -769 -756 -863
-869 -108 -130 -179 -237 -187 -281 -16 -85 68 -194 237 -306 83 -55 599 -354
666 -386 18 -9 33 -23 33 -33 0 -29 -67 -210 -195 -528 -171 -424 -216 -567
-218 -686 -2 -117 40 -161 163 -172 54 -5 64 -2 137 37 373 199 1531 1301
1703 1621 35 65 37 98 11 155 -54 118 -196 220 -700 499 -117 65 -215 125
-218 132 -8 19 40 152 173 485 133 332 214 570 240 703 20 98 13 126 -43 175
-29 26 -41 30 -91 30 -36 0 -77 -9 -114 -24z"/>
</g>
</svg>
